<?xml version="1.0" encoding="UTF-8" standalone="no"?>
<!-- Created with Inkscape (http://www.inkscape.org/) -->

<svg
   width="210mm"
   height="297mm"
   viewBox="0 0 210 297"
   version="1.1"
   id="svg5"
   inkscape:version="1.1.2 (0a00cf5339, 2022-02-04)"
   sodipodi:docname="tom marmelade.svg"
   xmlns:inkscape="http://www.inkscape.org/namespaces/inkscape"
   xmlns:sodipodi="http://sodipodi.sourceforge.net/DTD/sodipodi-0.dtd"
   xmlns="http://www.w3.org/2000/svg"
   xmlns:svg="http://www.w3.org/2000/svg">
  <sodipodi:namedview
     id="namedview7"
     pagecolor="#505050"
     bordercolor="#ffffff"
     borderopacity="1"
     inkscape:pageshadow="0"
     inkscape:pageopacity="0"
     inkscape:pagecheckerboard="1"
     inkscape:document-units="mm"
     showgrid="false"
     inkscape:zoom="0.52306804"
     inkscape:cx="589.78943"
     inkscape:cy="552.50938"
     inkscape:window-width="2554"
     inkscape:window-height="1049"
     inkscape:window-x="3"
     inkscape:window-y="28"
     inkscape:window-maximized="1"
     inkscape:current-layer="layer1" />
  <defs
     id="defs2">
    <rect
       x="473.50462"
       y="1069.3111"
       width="416.49594"
       height="131.28877"
       id="rect112048" />
    <rect
       x="-368.76833"
       y="592.63408"
       width="1528.5558"
       height="64.611554"
       id="rect109762" />
    <rect
       x="-337.15354"
       y="526.86422"
       width="1221.1675"
       height="80.87588"
       id="rect108304" />
    <rect
       x="3.4368172"
       y="939.17949"
       width="317.33279"
       height="114.3004"
       id="rect97747" />
    <rect
       x="246.30523"
       y="490.56057"
       width="91.433988"
       height="61.746975"
       id="rect88747" />
    <rect
       x="32.562801"
       y="357.52759"
       width="240.78795"
       height="105.6398"
       id="rect80891" />
    <rect
       x="32.562801"
       y="357.52759"
       width="196.36817"
       height="97.882692"
       id="rect77387" />
    <rect
       x="14.73018"
       y="26.707358"
       width="755.4249"
       height="204.79473"
       id="rect48590" />
    <rect
       x="1006.4801"
       y="343.8306"
       width="207.90253"
       height="134.57698"
       id="rect18541" />
    <clipPath
       clipPathUnits="userSpaceOnUse"
       id="clipPath117596">
      <rect
         style="fill:#ff0047;fill-opacity:0.401726;stroke-width:0.600001;stroke-linecap:square;stroke-miterlimit:4;stroke-dasharray:none"
         id="rect117598"
         width="9.8594322"
         height="17.372568"
         x="-100.14069"
         y="258.92059" />
    </clipPath>
    <filter
       id="mask-powermask-path-effect117612_inverse"
       inkscape:label="filtermask-powermask-path-effect117612"
       style="color-interpolation-filters:sRGB"
       height="100"
       width="100"
       x="-50"
       y="-50">
      <feColorMatrix
         id="mask-powermask-path-effect117612_primitive1"
         values="1"
         type="saturate"
         result="fbSourceGraphic" />
      <feColorMatrix
         id="mask-powermask-path-effect117612_primitive2"
         values="-1 0 0 0 1 0 -1 0 0 1 0 0 -1 0 1 0 0 0 1 0 "
         in="fbSourceGraphic" />
    </filter>
    <filter
       id="mask-powermask-path-effect117864_inverse"
       inkscape:label="filtermask-powermask-path-effect117864"
       style="color-interpolation-filters:sRGB"
       height="100"
       width="100"
       x="-50"
       y="-50">
      <feColorMatrix
         id="mask-powermask-path-effect117864_primitive1"
         values="1"
         type="saturate"
         result="fbSourceGraphic" />
      <feColorMatrix
         id="mask-powermask-path-effect117864_primitive2"
         values="-1 0 0 0 1 0 -1 0 0 1 0 0 -1 0 1 0 0 0 1 0 "
         in="fbSourceGraphic" />
    </filter>
  </defs>
  <g
     inkscape:label="Layer 1"
     inkscape:groupmode="layer"
     id="layer1">
    <path
       style="fill:#fec74a;fill-opacity:1;stroke:#000000;stroke-width:0.264583px;stroke-linecap:butt;stroke-linejoin:miter;stroke-opacity:1"
       d="m 0.02014227,239.35368 32.46537973,-1.66362 39.849641,-0.32599 48.139447,3.61876 62.30187,9.06294 27.2637,6.80264 L 209.9713,0.00511046 0.02809168,0.02180145 -0.00419127,240.58987"
       id="path123441" />
    <path
       style="fill:#fde1ce;fill-opacity:1;stroke:#000000;stroke-width:0.264583px;stroke-linecap:butt;stroke-linejoin:miter;stroke-opacity:1"
       d="m 107.53518,128.31538 2.99692,11.54752 -3.03769,7.01688 -7.93349,3.67531 -9.322733,1.17554 -9.670723,-6.66641 -7.089106,-11.0948 0.116811,-9.54795 0.865401,-9.69198 4.344853,-5.97292 5.819901,-5.27072 9.873256,-2.83664 7.96062,1.82017 8.39922,5.20226 1.71167,5.28449 0.94162,3.59635 -1.93685,5.94981 z"
       id="path140546" />
    <path
       style="fill:#f9fcf6;fill-opacity:1;stroke:#000000;stroke-width:0.264583px;stroke-linecap:butt;stroke-linejoin:miter;stroke-opacity:1"
       d="m 96.000456,123.17702 0.972376,8.26509 6.083448,1.83104 2.41018,-4.81422 -0.40589,-5.37176 -2.32271,-4.35134 c 0,0 -3.403037,0.59685 -3.628104,0.59685 -0.225071,0 -3.1093,3.84434 -3.1093,3.84434 z"
       id="path132745" />
    <ellipse
       style="fill:#337fdf;fill-opacity:1;stroke:none;stroke-width:0.559781;stroke-linecap:square;stroke-miterlimit:4;stroke-dasharray:none"
       id="path132577"
       cx="102.80357"
       cy="127.04317"
       rx="1.1923729"
       ry="2.2865274" />
    <ellipse
       style="fill:#ea6164;fill-opacity:1;stroke-width:0.264999"
       id="path856"
       cx="171.43654"
       cy="82.729645"
       rx="25.000038"
       ry="25" />
    <path
       style="fill:#337fdf;fill-opacity:1;stroke:#000000;stroke-width:0.264583px;stroke-linecap:butt;stroke-linejoin:miter;stroke-opacity:1"
       d="m 50.693803,228.05911 -5.432331,-15.70446 5.249669,-24.1454 7.111574,-17.51125 6.397533,-10.08166 6.057346,-5.79134 3.674168,-3.87369 8.059476,6.94706 -8.250778,19.89392 -0.749898,17.58748 5.374912,5.70647 3.918537,-8.30559 8.327251,-2.04938 9.192298,-2.1967 12.2218,2.56115 14.33644,7.08599 -6.14609,17.41248 -7.71063,14.45979 -9.80374,8.92122 -10.204916,-11.25722 c 0,0 -9.421557,9.70179 -8.945293,9.80519 0.476264,0.10339 -28.091857,0.12588 -28.091857,0.12588 z"
       id="path126438" />
    <path
       style="fill:#fef371;fill-opacity:1;stroke:none;stroke-width:0.264583px;stroke-linecap:butt;stroke-linejoin:miter;stroke-opacity:1"
       d="m -0.00419127,240.58987 0.00622732,56.40825 210.00315395,-0.003 0.035,-40.14671 c 0,0 -47.24732,-10.17672 -47.58145,-10.10847 -0.33413,0.0683 -52.07456,-6.81258 -52.07456,-6.81258 L 36.031473,237.3218 Z"
       id="path120597" />
    <path
       style="fill:#fde1ce;fill-opacity:1;stroke:#000000;stroke-width:0.264583px;stroke-linecap:butt;stroke-linejoin:miter;stroke-opacity:1"
       d="m 93.615102,188.81319 c 1.088857,0.50528 18.021008,1.40475 18.021008,1.40475 l 0.355,-6.81875 -5.31233,-3.92273 -4.90461,-0.1576 -6.974792,0.80846 -0.90028,3.78357 z"
       id="path143996" />
    <path
       style="fill:#fe4a51;fill-opacity:1;stroke:#000000;stroke-width:0.264583px;stroke-linecap:butt;stroke-linejoin:miter;stroke-opacity:1"
       d="m 3.3426343,113.22246 3.479418,4.55505 5.0012117,4.41522 8.229485,3.62198 14.049197,2.41283 11.292423,-1.73568 5.679442,-0.80448 14.982393,5.07798 -5.48479,-10.27139 4.268528,-5.63594 2.484925,-5.92127 -0.520997,-5.38485 -2.175627,-5.396421 -4.020893,-3.909194 -3.968592,-3.065278 -6.620931,-2.496164 -9.165932,-2.676434 -10.070904,-0.189574 -10.606661,2.054632 -6.888358,2.818231 -5.7568916,4.116207 -4.1338637,5.021907 -2.0603683,6.429998 0.4216732,4.33591 z"
       id="path146045" />
    <path
       style="fill:#000000;stroke-width:0.303108"
       d="M 2.10476e-7,263.79716 V 247.27673 L 42.965654,247.35352 l 42.965654,0.0768 0.07846,16.19674 c 0.06179,12.75654 -0.003,11.24778 -0.303369,11.43857 -0.209863,0.13323 -19.579718,0.24431 -43.044117,0.24688 l -42.66254236359,0.005 z M 83.581954,273.89709 l 1.288212,-0.16428 2.62e-4,-10.12058 V 248.49124 H 42.889878 0.90932621 v 15.27032 l -2.615e-4,10.26991 40.69233829,0.0149 c 22.380787,0.008 41.980551,-0.86358 41.980551,-0.14933 z M 209.41361,258.44262 c -0.24758,0 -28.26724,-6.68051 -33.15592,-7.54922 -1.00026,-0.17775 -2.09145,-0.38434 -2.42486,-0.4591 -0.66164,-0.14836 -5.3884,-1.01679 -9.69949,-1.78205 -4.57655,-0.81239 -11.08118,-1.89379 -13.63988,-2.26764 -1.33368,-0.19485 -3.24327,-0.47613 -4.24352,-0.62504 -1.00027,-0.14892 -2.90985,-0.41776 -4.24352,-0.59743 -1.33368,-0.17967 -3.90192,-0.53118 -5.70721,-0.78113 -3.98571,-0.55183 -15.58718,-1.88036 -19.75392,-2.2621 -1.66711,-0.15273 -4.53148,-0.42088 -6.36529,-0.59589 -6.93539,-0.66188 -14.051802,-1.17155 -25.764236,-1.84521 -3.000776,-0.1726 -14.390084,-0.39196 -25.309573,-0.48748 -21.037367,-0.18403 -31.344361,0.0917 -47.588062,1.27315 -1.083613,0.0788 -4.0115441,0.29067 -6.5065135,0.47079 -2.4949692,0.18013 -4.64325184,0.3936 -4.77396146,0.47438 C 0.10694444,241.48945 2.1047603e-7,240.79729 2.1047603e-7,239.87054 v -1.68498 H 1.7704567 c 0.9737511,0 2.849236,-0.12897 4.1677443,-0.28659 1.3185081,-0.15764 5.125266,-0.43617 8.459461,-0.61897 3.334195,-0.18279 8.244556,-0.45944 10.911912,-0.61476 2.667357,-0.15531 10.101096,-0.3717 16.519423,-0.48085 6.418326,-0.10915 11.706453,-0.22908 11.751398,-0.2665 0.04494,-0.0374 -0.411758,-0.59959 -1.01489,-1.24927 -3.398139,-3.66039 -5.732811,-8.73207 -6.96222,-15.12421 -1.392563,-7.24043 -0.572464,-18.07531 2.15833,-28.51514 0.432767,-1.65446 0.891498,-3.41731 1.019402,-3.91744 0.782688,-3.06039 3.092912,-9.09826 4.92184,-12.86342 4.076263,-8.39169 7.7856,-13.81479 14.190008,-20.74599 1.77427,-1.92021 5.3766,-5.03688 5.821763,-5.03688 0.190722,0 1.04494,0.75019 1.898264,1.66709 0.853324,0.9169 1.688742,1.6671 1.856482,1.6671 0.167741,0 0.837024,-0.7161 1.487291,-1.59132 0.650272,-0.87523 1.310236,-1.76355 1.466592,-1.97406 0.200513,-0.26996 -0.156342,-0.85054 -1.210992,-1.97021 -2.295994,-2.43753 -3.876027,-4.73299 -5.180997,-7.5269 -1.121869,-2.40189 -1.392002,-3.23347 -2.175812,-6.69799 -0.470912,-2.08147 -0.403844,-10.01992 0.1045,-12.3691 1.054227,-4.87188 3.210536,-9.47586 5.652116,-12.06795 0.6579,-0.69846 1.196183,-1.37589 1.196183,-1.5054 0,-0.12951 -0.886594,-1.11419 -1.970207,-2.18817 -1.083613,-1.07396 -1.970207,-2.18417 -1.970207,-2.46709 0,-2.129471 1.483089,-2.005073 3.980779,0.3339 1.06141,0.99396 2.150142,1.81235 2.419403,1.81865 0.269261,0.006 0.814856,-0.24207 1.212435,-0.55192 0.397578,-0.30985 1.166168,-0.79075 1.707975,-1.06867 0.541806,-0.27791 0.984436,-0.67229 0.983625,-0.8764 -9.11e-4,-0.20411 -0.478213,-1.300071 -1.060881,-2.435481 -1.254064,-2.443706 -1.307842,-3.063255 -0.321957,-3.709231 1.115256,-0.730743 1.74694,-0.195278 3.079115,2.610082 l 1.171509,2.46703 1.219045,-0.208104 c 0.670477,-0.114453 1.832844,-0.298736 2.583038,-0.40952 l 1.363989,-0.201419 0.151554,-3.062067 c 0.155944,-3.150747 0.493429,-4.060975 1.50568,-4.060975 1.131493,0 1.497927,0.945885 1.589426,4.102833 l 0.08754,3.020209 1.212434,0.180462 c 0.666838,0.09925 1.718968,0.284 2.33807,0.410551 l 1.12563,0.23009 0.87887,-1.926093 c 0.48339,-1.059351 0.97273,-2.226011 1.08742,-2.592581 0.40443,-1.292556 2.45163,-1.252209 2.77965,0.05479 0.0983,0.391531 -0.0378,1.200832 -0.30239,1.798446 -0.26461,0.597611 -0.68568,1.550477 -0.93574,2.117477 -0.51248,1.162011 -0.57508,1.697061 -0.19855,1.697061 0.14086,0 1.1155,0.55544 2.16585,1.23432 l 1.90972,1.23431 1.54725,-1.50269 c 2.05249,-1.99341 2.63495,-2.277396 3.47057,-1.69211 1.07513,0.75306 0.80474,1.68167 -1.01228,3.47635 -0.91594,0.90469 -1.66614,1.75537 -1.6671,1.8904 -9e-4,0.13504 0.47083,0.86442 1.04842,1.62086 1.63367,2.13956 2.33495,4.35922 2.31321,7.32166 -0.0219,2.98032 -0.43479,4.33372 -2.51419,8.24069 -2.98889,5.61581 -2.79674,5.00339 -2.27641,7.25498 0.2529,1.0944 0.7596,3.01281 1.12597,4.26313 1.74292,5.94786 0.892,10.0865 -2.77107,13.47786 -3.65194,3.38104 -7.10835,4.7387 -12.571203,4.9379 -4.191771,0.15284 -6.925311,-0.40915 -10.147931,-2.08634 -1.41628,-0.73709 -1.892109,-0.86157 -2.227956,-0.58285 -0.943732,0.78323 -2.93756,3.6457 -2.75036,3.94859 0.109981,0.17795 1.003284,0.72906 1.985122,1.22469 2.800025,1.41345 2.807293,1.54771 0.309878,5.72451 -3.727225,6.23358 -6.043611,11.68104 -7.196306,16.92359 -0.65706,2.98836 -0.74404,11.25747 -0.144313,13.7195 0.510186,2.09443 1.796522,5.80959 2.125371,6.13844 0.136463,0.13646 0.732759,-0.47277 1.325103,-1.35385 1.525055,-2.26842 4.221024,-4.88714 6.384009,-6.20108 2.193033,-1.3322 4.946338,-2.50667 5.899963,-2.51672 1.456962,-0.34984 1.314416,-0.39865 0.681996,-2.13226 -0.90274,-2.47461 0.727956,-4.32264 2.612489,-6.05974 2.03219,-1.87321 3.698993,-2.49356 7.138078,-2.65664 2.44609,-0.116 3.27091,-0.029 4.98887,0.52598 4.04355,1.30633 6.8013,3.98468 7.6912,7.46975 0.37796,1.48021 0.23824,2.8994 -0.46616,4.73504 -0.12664,0.33001 0.30096,0.63855 1.58585,1.14431 5.0229,1.97712 12.49535,5.64368 12.72582,6.2443 0.10881,0.28352 -0.0555,1.80401 -0.36518,3.37886 l -0.563,2.86336 0.73987,0.56865 c 0.40693,0.31277 0.87942,0.57169 1.05001,0.5754 0.17056,0.004 0.6246,-0.91697 1.00896,-2.04596 2.14764,-6.30826 7.90254,-9.25265 11.5094,-5.88858 1.6116,1.50311 2.17537,3.11904 2.17537,6.23509 0,3.42603 -0.86807,5.96441 -3.02416,8.8431 -1.4771,1.97213 -4.11146,3.42586 -5.99343,3.30736 -2.74726,-0.17298 -4.4931,-1.91949 -5.58333,-5.58547 -0.28367,-0.95384 -0.70781,-1.55948 -1.43288,-2.04598 -0.56646,-0.38008 -1.11521,-0.69106 -1.21945,-0.69106 -0.10424,0 -0.5064,0.98889 -0.89369,2.19753 -0.38731,1.20865 -0.82744,2.43438 -0.97809,2.72386 -0.15065,0.28948 -0.27392,0.66116 -0.27392,0.82596 0,0.52662 -3.12694,7.13087 -4.51546,9.53684 -0.37761,0.65432 -1.15359,1.91974 -1.7244,2.81207 -0.99503,1.55548 -1.01759,1.65328 -0.54677,2.37184 0.2701,0.41221 0.60524,0.74947 0.74476,0.74947 0.13953,0 0.6579,-0.5875 1.15192,-1.30555 2.67805,-3.8924 7.52547,-6.06357 10.31598,-4.62054 1.26907,0.65626 2.70183,2.4394 2.92777,3.64377 0.43093,2.29704 0.0187,5.35999 -1.00131,7.43996 -1.1457,2.33627 -3.57047,5.16068 -5.23234,6.09469 -0.65239,0.36667 -1.12249,0.7697 -1.04466,0.89563 0.0778,0.12593 0.74087,0.22896 1.47343,0.22896 0.73256,0 2.40242,0.14669 3.71081,0.32598 1.30837,0.17928 3.47006,0.46644 4.80375,0.63812 2.24119,0.28851 6.48588,0.88332 10.91191,1.52911 1.00025,0.14594 2.77343,0.40251 3.94041,0.57015 2.75109,0.3952 14.10974,2.27293 17.42875,2.88119 1.41703,0.2597 3.32661,0.60777 4.24352,0.7735 0.9169,0.16572 2.75829,0.52337 4.09196,0.79476 1.33368,0.27139 2.76587,0.55527 3.18265,0.63083 0.41676,0.0756 3.48574,0.69214 6.81994,1.37016 3.33419,0.67802 22.60873,5.33065 23.18974,5.44696 1.28533,0.25731 1.15002,0.14656 1.1525,1.77501 l 0.002,1.51065 c 0.0731,0.27963 -0.0615,-0.0606 -0.58499,-0.0606 z m -91.89574,-20.6092 c -0.85046,-1.3681 -0.97423,-1.83438 -0.98573,-3.71308 -0.009,-1.42721 -0.19618,-2.52541 -0.55837,-3.27121 -0.98632,-2.03104 -1.14149,-2.00247 -3.32189,0.61169 -1.09488,1.3127 -3.02921,3.32354 -4.29849,4.46854 -2.58994,2.33636 -2.57055,2.4165 0.6139,2.53814 1.00041,0.0382 3.31932,0.24494 5.15312,0.4594 1.83382,0.21446 3.56727,0.40819 3.85211,0.43051 0.42193,0.0331 0.33766,-0.24942 -0.45465,-1.52399 z m -19.667896,-0.56801 c -0.208078,-0.62423 -5.561316,-7.2373 -5.869127,-7.25037 -0.173659,-0.007 -0.676859,0.7229 -1.118222,1.62282 -0.441363,0.89992 -1.424567,2.33666 -2.184904,3.19275 -0.760333,0.8561 -1.382425,1.68838 -1.382425,1.84953 0,0.16114 0.716095,0.29485 1.591321,0.29713 1.995646,0.005 6.701584,0.3411 6.870465,0.49041 0.300619,0.26579 2.188104,0.0834 2.092892,-0.20227 z m 4.949336,-0.82272 c 5.01325,-4.03756 11.02258,-10.90858 13.05596,-14.92808 0.3795,-0.75019 0.77393,-1.43219 0.8765,-1.51554 0.10256,-0.0834 0.29144,-0.49255 0.41973,-0.90933 0.12829,-0.41677 0.33452,-0.82597 0.45827,-0.90932 0.20015,-0.13481 1.46032,-2.72406 3.02417,-6.21372 0.5719,-1.2762 1.40447,-3.62242 1.82847,-5.15284 1.86033,-6.7145 2.0502,-7.59268 1.71166,-7.91665 -0.35456,-0.33931 -5.14133,-2.82428 -6.5679,-3.40961 -6.06762,-2.48959 -8.56468,-3.30658 -13.08187,-4.28012 -2.18473,-0.47085 -3.76165,-0.60907 -6.213727,-0.54466 -3.25671,0.0855 -3.286684,0.0931 -3.362146,0.84408 -0.771509,7.6782 -5.405931,16.22207 -10.842855,19.98953 -0.829653,0.5749 -1.576659,1.13627 -1.660014,1.2475 -0.242115,0.32305 -2.665234,1.4959 -3.094788,1.49795 -0.215028,9.1e-4 -0.800158,0.23324 -1.300287,0.51602 -0.733002,0.41445 -1.702793,0.51265 -5.001293,0.50643 -4.25902,-0.008 -3.933681,0.0578 -8.638598,-1.74793 -2.089373,-0.80191 -5.475967,-3.5367 -6.846646,-5.52891 -0.510645,-0.7422 -1.284383,-2.33288 -1.719421,-3.53485 -0.705426,-1.94903 -0.793107,-2.64438 -0.810641,-6.42891 -0.01858,-4.01245 0.487953,-8.97121 1.052736,-10.30568 0.141112,-0.33342 0.619224,-1.83051 1.062471,-3.32686 0.443248,-1.49636 1.049532,-3.26954 1.347293,-3.94041 0.297762,-0.67087 1.19189,-2.72015 1.98695,-4.55395 0.795057,-1.83381 1.667861,-3.67518 1.939559,-4.09196 0.271701,-0.41678 0.6906,-1.16697 0.930889,-1.6671 0.24029,-0.50013 1.224266,-2.09758 2.186617,-3.54988 0.962349,-1.45232 1.749726,-2.71694 1.749726,-2.81027 0,-0.0933 0.681994,-1.03751 1.515544,-2.09818 0.833547,-1.06066 1.515542,-2.01904 1.515542,-2.12972 0,-0.43916 1.640828,-1.68783 2.217931,-1.68783 0.870808,0 1.722482,0.87084 1.722482,1.76124 0,0.41688 -0.375097,1.24294 -0.833549,1.83568 -0.458452,0.59275 -1.038147,1.37321 -1.288212,1.73434 -3.154795,4.5561 -4.243521,6.20867 -4.243521,6.44122 0,0.15269 -0.181062,0.42789 -0.402362,0.61155 -0.66094,0.54853 -4.849808,9.22213 -6.169106,12.77395 -1.888044,5.08299 -2.964603,11.25092 -2.727555,15.62697 0.152912,2.82283 0.305065,3.51825 1.223174,5.5906 1.02191,2.30665 3.492328,4.72959 5.961945,5.84735 3.052071,1.3814 3.685149,1.53005 6.62022,1.5545 3.404527,0.0283 4.395582,-0.13691 6.273744,-1.04611 6.290202,-3.04503 10.065432,-8.34216 12.360461,-17.34332 0.244398,-0.95853 0.332281,-1.81205 0.195297,-1.89671 -0.306667,-0.18953 -3.936864,1.35596 -3.936864,1.67605 0,0.12685 -0.348213,0.31803 -0.773808,0.42484 -1.302346,0.32687 -4.698306,4.05868 -6.3494,6.97733 -1.664193,2.94181 -2.12467,3.38534 -3.211348,3.0931 -0.669139,-0.17995 -2.396007,-2.52825 -2.396007,-3.25824 0,-0.16305 -0.274132,-0.83379 -0.609183,-1.49054 -0.62557,-1.22622 -1.791926,-4.80408 -2.388623,-7.32724 -0.773899,-3.27246 -0.151033,-12.67479 1.130635,-17.06716 1.356403,-4.6485 5.490559,-13.40496 7.34358,-15.55428 0.262957,-0.30499 0.21185,-0.49888 -0.217174,-0.8239 -0.308577,-0.23378 -0.69745,-0.43273 -0.864159,-0.44213 -0.166711,-0.009 -1.394301,-1.03189 -2.727979,-2.27221 -1.333678,-1.24032 -2.561268,-2.25937 -2.727978,-2.26455 -0.744686,-0.0232 -7.014079,6.63213 -9.319924,9.89359 -0.685935,0.97021 -1.563441,2.14958 -1.950011,2.62082 -0.386573,0.47124 -0.702857,1.04391 -0.702857,1.27259 0,0.22869 -0.306898,0.74707 -0.681994,1.15196 -0.375098,0.4049 -1.008946,1.33262 -1.408549,2.0616 -1.007203,1.8374 -3.971631,7.80554 -3.971631,7.9959 0,0.0858 -0.286391,0.80247 -0.636425,1.59253 -0.350032,0.79005 -0.738833,1.70925 -0.863999,2.04267 -0.498814,1.32877 -0.990743,2.77353 -1.238474,3.6373 -0.143434,0.50013 -0.540258,1.86412 -0.881829,3.03108 -0.638916,2.18285 -1.702674,6.53187 -2.18711,8.94169 -0.822961,4.09381 -1.572731,13.97804 -1.310563,17.27717 0.483346,6.08246 1.4662,9.65619 3.888083,14.13737 1.210577,2.23991 5.186209,6.27345 6.658792,6.75579 0.531632,0.17413 5.808762,0.43849 11.726959,0.58746 12.389943,0.31186 11.986117,0.37897 14.751935,-2.45171 1.861309,-1.90495 2.665523,-3.26201 3.713585,-6.26643 1.275083,-3.65521 2.29513,-3.68816 5.042396,-0.16289 0.990912,1.27153 2.53262,3.21925 3.426017,4.32827 0.893398,1.10902 2.245175,2.8007 3.003947,3.75927 0.75877,0.95858 1.42434,1.74288 1.47904,1.74288 0.0547,0 0.39583,-0.2387 0.75807,-0.53044 z m 7.76323,-47.73954 c 0.55103,-0.68402 0.72142,-2.27591 0.37949,-3.54572 -0.7206,-2.67612 -4.01561,-4.88669 -7.97812,-5.3524 -2.02467,-0.23796 -5.098319,0.5162 -6.518459,1.59939 -1.432765,1.09282 -2.342104,3.20673 -1.990809,4.62795 l 0.266818,1.07946 3.940412,0.19042 c 3.975588,0.19212 6.015908,0.49145 8.790158,1.28957 1.93474,0.55661 2.72892,0.58503 3.11051,0.11133 z M 98.183572,149.83449 c 4.387798,-0.92299 8.424698,-3.6674 9.727748,-6.61322 0.88666,-2.00443 0.83862,-4.78021 -0.14002,-8.09249 -0.41867,-1.41703 -0.76408,-2.88332 -0.76758,-3.25842 -0.009,-0.95159 -0.80626,-0.86118 -1.3367,0.15156 -0.59453,1.13509 -2.25099,2.62661 -3.43362,3.09173 -0.77314,0.30406 -1.29085,0.30775 -2.499491,0.0178 -2.538873,-0.60906 -4.164036,-2.80154 -5.361307,-7.23284 -0.09102,-0.3369 -1.841709,-0.39108 -9.792737,-0.30311 -6.633882,0.0734 -9.789204,0.21446 -10.02275,0.44807 -0.252398,0.25246 -0.217471,1.0559 0.13459,3.09597 0.950418,5.50737 3.188343,9.78274 7.18367,13.7238 4.520819,4.45942 10.327084,6.22932 16.308197,4.97115 z m -3.462112,-5.90144 c -4.563514,-0.9894 -8.111758,-3.57032 -9.704798,-7.05909 -0.88967,-1.94837 -0.799349,-2.85822 0.311401,-3.137 0.982559,-0.24661 1.329111,0.0302 2.034611,1.62509 2.152022,4.86499 8.48166,7.18816 14.904386,5.47034 1.3001,-0.34772 1.45098,-0.32751 2.05358,0.27511 0.59937,0.59935 0.61423,0.70559 0.1895,1.35384 -0.28409,0.43355 -1.02922,0.85653 -1.94215,1.10244 -1.87936,0.50626 -6.263146,0.71255 -7.84653,0.36927 z m 7.28505,-11.76422 c 1.27894,-0.71677 2.58642,-3.7836 2.53628,-5.93417 -0.0506,-2.1694 -1.37513,-5.1644 -2.83466,-5.86041 -0.95906,-0.45734 -1.08588,-0.45165 -2.034539,0.0912 -1.568842,0.89778 -2.443065,2.94901 -2.443065,5.73226 0,2.61806 0.392626,3.83023 1.690119,5.21799 0.907216,0.97033 2.301055,1.31051 3.085865,0.75313 z m -7.841691,-7.68998 c 0.201363,-0.16712 0.457518,-0.73773 0.569228,-1.26801 0.336933,-1.59942 1.95154,-4.13439 3.126118,-4.90806 3.681535,-2.42499 7.212875,-0.23631 9.262245,5.74059 0.1731,0.50483 0.25771,0.52543 0.6224,0.15155 0.70017,-0.71781 2.85818,-4.93009 3.3408,-6.52102 0.80563,-2.65568 0.40439,-5.80278 -1.03452,-8.11423 -1.65961,-2.66595 -5.63178,-5.5106 -9.26746,-6.63682 -2.576982,-0.79827 -9.180198,-0.95866 -11.215019,-0.27241 -6.677065,2.25185 -12.15453,8.28137 -14.360084,15.80739 -0.61672,2.10443 -1.078103,6.09682 -0.729537,6.31277 0.531773,0.32944 19.271985,0.0517 19.685829,-0.29175 z m -27.177803,7.68193 c -0.250065,-0.087 -3.932835,-1.57914 -8.183934,-3.31581 l -7.72927,-3.15759 -2.607069,0.79772 c -4.10571,1.25628 -7.016184,1.69733 -12.396811,1.87858 -12.4192,0.41836 -22.699744,-2.9706 -29.5900428,-9.7543 -3.843987,-3.78452 -5.57056299,-7.38149 -5.57056299,-11.60515 0,-9.759329 9.58224079,-18.151594 24.01746679,-21.034838 4.967685,-0.992231 14.048259,-0.995353 18.952082,-0.0065 8.131072,1.639594 14.797537,4.986784 19.10681,9.593401 6.739329,7.204357 6.575279,15.835367 -0.435923,22.934517 l -1.978347,2.00316 3.662462,5.47914 c 2.014358,3.01352 3.662465,5.61631 3.662465,5.78398 0,0.42523 -0.372397,0.59056 -0.909326,0.40371 z m -1.818653,-2.36663 c 0,-0.1 -1.206547,-1.97546 -2.681213,-4.16774 -3.726379,-5.53971 -3.599968,-5.23972 -2.633226,-6.24878 1.500585,-1.33552 3.280389,-2.57271 4.556677,-5.01176 l 0.65877,-1.23062 C 67.404681,108.77279 67.016094,103.11673 64.08877,98.862159 60.067549,93.01773 52.779167,89.011768 42.586768,87.043868 38.818994,86.316405 30.03226,86.312346 26.147435,87.036268 18.934032,88.380471 12.548747,91.133751 8.6155883,94.595849 8.5161866,94.535969 4.3061612,99.047246 4.6981845,98.639966 l -1.0229169,2.099284 c -2.6950634,5.531 -1.6154991,11.42859 2.9854764,16.30945 4.927158,5.22689 12.18622,8.51979 21.52168,9.76278 6.548273,0.87188 13.452747,0.35398 19.254082,-1.44425 1.667099,-0.51675 3.272507,-0.92704 3.567575,-0.91177 0.555004,0.0287 1.13249,0.25417 9.011436,3.51803 4.894854,2.02769 5.152846,2.11885 5.152846,1.82066 z"
       id="path854"
       sodipodi:nodetypes="ccccssscccccccccccscsssssssssssssssscsssssssssssssssssssssssssscsscssscsscssscsscsscsssscssscssssssssssssssssscssscssssccscssssssssssssssssssssssssssssssssscssscsssssssscssscsssssssssssscssscsssssssssssssssssssssssssscssssssssssssscscssssssssssssssssssssssssssscsssssscsssssssssssssssssscascsscsssssssssssssscssssscsscssssssccssscccsssssss" />
    <path
       style="fill:#ffffff;fill-opacity:1;stroke-width:0.301809"
       d="m 159.28236,76.591233 c 0.1567,-0.14652 1.02712,-0.508139 1.9343,-0.803594 0.90717,-0.295452 1.81809,-0.600244 2.02426,-0.677314 0.20618,-0.07706 0.37487,-0.0012 0.37487,0.168228 0,0.169594 -0.83592,0.594267 -1.85757,0.94372 -1.96723,0.672867 -2.9589,0.820651 -2.47586,0.36896 z m 6.13269,-3.83433 c -0.68712,-2.088345 -1.20057,-3.945076 -1.14101,-4.126071 0.10029,-0.304516 11.31102,-4.226566 12.08123,-4.226566 0.416,0 2.93756,7.63211 2.62512,7.94559 -0.12108,0.121467 -2.17691,0.854209 -4.56855,1.628316 -2.39161,0.774106 -5.06196,1.670322 -5.93409,1.991595 -0.87211,0.32127 -1.6369,0.58413 -1.69953,0.58413 -0.0626,0 -0.67604,-1.708645 -1.36317,-3.796994 z m 7.7899,1.065151 4.94089,-1.595354 -2.07648,-1.060273 -2.0765,-1.060275 -0.46526,0.631385 c -0.25589,0.347261 -0.67303,0.927008 -0.92699,1.288327 l -0.46172,0.656943 -1.25676,-0.649386 -1.25677,-0.649385 -0.97837,1.901515 c -1.28747,2.502233 -1.27939,2.479069 -0.79868,2.292892 0.22868,-0.08857 2.63917,-0.878945 5.35664,-1.756389 z m -4.20568,-2.503311 c 0.0158,-0.243035 -3.38446,-2.054625 -3.85645,-2.054625 -0.23115,0 0.73337,3.375174 1.64917,5.771076 0.11448,0.299494 0.52,-0.22089 1.18343,-1.518705 0.55512,-1.085873 1.01584,-2.074859 1.02385,-2.197746 z m 4.26079,-1.447142 c 0.49576,-0.918816 1.22958,-2.272263 1.63074,-3.007662 0.40115,-0.735399 0.67339,-1.393785 0.60497,-1.463077 -0.1834,-0.185765 -9.78075,2.992631 -9.78075,3.239134 0,0.315392 5.78644,3.081054 6.24577,2.985206 0.21885,-0.04566 0.80353,-0.834785 1.29927,-1.753601 z m 4.97648,1.139028 c -0.0759,-0.208822 -0.51395,-1.530598 -0.97339,-2.93728 -0.93699,-2.868803 -0.95098,-2.868606 -2.42185,0.03459 l -0.72228,1.42562 1.72084,0.908765 c 1.86731,0.986112 2.61289,1.162902 2.39668,0.568302 z m -18.6837,3.393453 c -0.0955,-0.156422 0.004,-0.340109 0.22034,-0.408194 0.21662,-0.06809 1.05892,-0.340487 1.87176,-0.605339 1.64395,-0.535642 2.55018,-0.629293 2.10579,-0.217612 -0.53809,0.4985 -4.02156,1.520116 -4.19789,1.231145 z m -1.63498,-1.738434 c 0,-0.313192 3.34031,-1.579085 4.16673,-1.579085 0.79479,0 -0.0472,0.509681 -1.76761,1.070001 -0.90717,0.295451 -1.81809,0.600243 -2.02425,0.677314 -0.20618,0.07706 -0.37487,0.0012 -0.37487,-0.16823 z"
       id="path7908"
       sodipodi:nodetypes="ssssssssssssssscccsscccssssssssssssssssscsssssssssssss" />
    <text
       xml:space="preserve"
       transform="matrix(0.21744661,-0.03655402,0.01880021,0.28994217,-72.696628,19.597169)"
       id="text18539"
       style="font-size:20px;line-height:1;font-family:Fredoka;-inkscape-font-specification:'Fredoka, @wght=400,wdth=115.7';font-variation-settings:'wdth' 115.7, 'wght' 400;white-space:pre;shape-inside:url(#rect18541);fill:#ffffff;fill-opacity:1"><tspan
         x="1006.4805"
         y="373.83008"
         id="tspan157141"><tspan
           style="font-style:italic;font-weight:900;font-size:40px;font-family:Roboto;-inkscape-font-specification:'Roboto, Heavy Italic'"
           id="tspan157139">Briefwahl
</tspan></tspan><tspan
         x="1006.4805"
         y="413.83008"
         id="tspan157145"><tspan
           style="font-style:italic;font-weight:900;font-size:40px;font-family:Roboto;-inkscape-font-specification:'Roboto, Heavy Italic'"
           id="tspan157143">     jetzt!</tspan></tspan></text>
    <path
       style="fill:#fe4a51;fill-opacity:1;stroke:none;stroke-width:0.264583px;stroke-linecap:butt;stroke-linejoin:miter;stroke-opacity:1"
       d="M 2.10476e-7,52.378796 7.0974802,75.535568 25.264524,38.34619 70.403379,86.073751 67.929383,35.246548 125.15618,67.304274 101.4476,26.321698 164.00108,46.426142 123.74212,11.121508 187.74359,13.890526 142.18218,0.11526049 0.02809168,0.02180145 Z"
       id="path154147"
       sodipodi:nodetypes="ccccccccccccc" />
    <text
       xml:space="preserve"
       transform="matrix(0.26458375,0,0,0.26458333,-1.3661604,8.0725602)"
       id="text48588"
       style="font-size:20px;line-height:1.25;font-family:Fredoka;-inkscape-font-specification:'Fredoka, @wght=400,wdth=115.7';font-variation-settings:'wdth' 115.7, 'wght' 400;white-space:pre;shape-inside:url(#rect48590)"><tspan
         x="14.730469"
         y="96.707031"
         id="tspan157151"><tspan
           style="font-size:80px;font-family:Roboto;-inkscape-font-specification:'Roboto, Normal'"
           id="tspan157147">Bedingungsloses</tspan><tspan
           style="font-family:Roboto;-inkscape-font-specification:'Roboto, Normal '"
           id="tspan157149">
</tspan></tspan><tspan
         x="14.730469"
         y="167.54039"
         id="tspan157155"><tspan
           style="font-size:46.6667px;font-family:Roboto;-inkscape-font-specification:'Roboto, Normal'"
           id="tspan157153">Marmeladenbrot</tspan></tspan></text>
    <text
       xml:space="preserve"
       transform="scale(0.26458333)"
       id="text77385"
       style="line-height:1.25;font-family:Fredoka;font-size:20.00001144px;-inkscape-font-specification:'Fredoka, @wght=400,wdth=115.7';font-variation-settings:'wght' 400, 'wdth' 115.7;white-space:pre;shape-inside:url(#rect77387)" />
    <text
       xml:space="preserve"
       transform="matrix(0.26458375,0,0,0.26458333,-5.0917272,4.4380498)"
       id="text80889"
       style="font-size:20px;line-height:1.25;font-family:Fredoka;-inkscape-font-specification:'Fredoka, @wght=400,wdth=115.7';font-variation-settings:'wdth' 115.7, 'wght' 400;white-space:pre;shape-inside:url(#rect80891)"><tspan
         x="32.5625"
         y="404.19398"
         id="tspan157159"><tspan
           style="font-size:53.3333px;font-family:Roboto;-inkscape-font-specification:'Roboto, Normal'"
           id="tspan157157">Mit Honig</tspan></tspan></text>
    <text
       xml:space="preserve"
       transform="scale(0.26458333)"
       id="text88745"
       style="line-height:1.25;font-family:Fredoka;font-size:20.00001144px;-inkscape-font-specification:'Fredoka, @wght=400,wdth=115.7';font-variation-settings:'wght' 400, 'wdth' 115.7;white-space:pre;shape-inside:url(#rect88747)" />
    <text
       xml:space="preserve"
       transform="matrix(0.27892127,0,0,0.27892083,-0.08391535,-13.685031)"
       id="text97745"
       style="font-size:20px;line-height:1.25;font-family:Fredoka;-inkscape-font-specification:'Fredoka, @wght=400,wdth=115.7';font-variation-settings:'wdth' 115.7, 'wght' 400;white-space:pre;shape-inside:url(#rect97747)"><tspan
         x="3.4375"
         y="1020.8463"
         id="tspan157163"><tspan
           style="font-size:93.3333px;font-family:Roboto;-inkscape-font-specification:'Roboto, Normal'"
           id="tspan157161">JETZT!</tspan></tspan></text>
    <text
       xml:space="preserve"
       transform="scale(0.26458333)"
       id="text108302"
       style="line-height:1.25;font-family:Fredoka;font-size:20.00001144px;-inkscape-font-specification:'Fredoka, @wght=400,wdth=115.7';font-variation-settings:'wght' 400, 'wdth' 115.7;white-space:pre;shape-inside:url(#rect108304)" />
    <text
       xml:space="preserve"
       transform="scale(0.26458333)"
       id="text109760"
       style="line-height:1.25;font-family:Fredoka;font-size:20.00001144px;-inkscape-font-specification:'Fredoka, @wght=400,wdth=115.7';font-variation-settings:'wght' 400, 'wdth' 115.7;white-space:pre;shape-inside:url(#rect109762)" />
    <path
       style="fill:#000000;fill-opacity:1;stroke:#000000;stroke-width:0.6;stroke-linecap:square;stroke-linejoin:miter;stroke-miterlimit:4;stroke-dasharray:none;stroke-opacity:1"
       d="m 135.45841,268.20039 12.56901,0.008 5.27446,0.0255 -5.27446,-0.0255 0.0311,17.72278 -7.19652,-0.0315 0.2269,-17.70176"
       id="path115149"
       sodipodi:nodetypes="ccccccc" />
    <g
       id="g118196"
       transform="matrix(1.0000016,0,0,0.99999997,260.70535,10.679682)">
      <circle
         style="fill:#000000;fill-opacity:1;stroke-width:3.6933;stroke-linecap:square;stroke-miterlimit:4;stroke-dasharray:none"
         id="path116438"
         r="8"
         cy="268.08224"
         cx="-99.939117" />
      <circle
         style="fill:#fef371;fill-opacity:1;stroke-width:0.641749;stroke-linecap:square;stroke-miterlimit:4;stroke-dasharray:none"
         id="path116759"
         cx="-99.889"
         cy="267.93201"
         r="7.3499999"
         clip-path="url(#clipPath117596)" />
    </g>
    <rect
       style="fill:#ff0000;fill-opacity:1;stroke-width:0.600001;stroke-linecap:square;stroke-miterlimit:4;stroke-dasharray:none"
       id="rect116962"
       width="0.086607441"
       height="0.14508848"
       x="-100.14069"
       y="258.77551" />
    <g
       id="g120364"
       transform="matrix(1.0000016,0,0,0.99999997,258.8464,2.6318408)">
      <g
         id="g120369">
        <g
           id="g120562">
          <rect
             style="fill:#020000;fill-opacity:1;stroke-width:0.600001;stroke-linecap:square;stroke-miterlimit:4;stroke-dasharray:none"
             id="rect118253"
             width="6.5000396"
             height="14.852588"
             x="-87.715118"
             y="268.95923" />
          <path
             style="fill:#000000;fill-opacity:0.994081;stroke:#000000;stroke-width:0.264583px;stroke-linecap:butt;stroke-linejoin:miter;stroke-opacity:1"
             d="m -81.943924,272.2269 c 0,0 1.847531,-1.34687 2.578401,-1.67445 0.550296,-0.24664 1.145481,-0.46269 1.729723,-0.3133 0.258796,0.0662 0.665898,0.44583 0.665898,0.44583 l 0.0553,12.88129 6.486346,-0.0207 0.123611,-11.9447 c -2.06936,-2.7596 -5.268799,-4.42215 -11.535675,-0.2873 z"
             id="path118288"
             sodipodi:nodetypes="csscccccc" />
          <path
             style="fill:#000000;fill-opacity:0.994081;stroke:#000000;stroke-width:0.264583px;stroke-linecap:butt;stroke-linejoin:miter;stroke-opacity:1"
             d="m -70.404909,272.02152 c 0,0 1.093804,-1.16426 1.824674,-1.49184 0.550296,-0.24664 1.145481,-0.46269 1.729723,-0.3133 0.258796,0.0662 0.665898,0.44583 0.665898,0.44583 l 0.0553,12.88129 6.486346,-0.0207 0.123611,-11.9447 c -2.06936,-2.7596 -4.679442,-4.6071 -10.946318,-0.47225 z"
             id="path119998"
             sodipodi:nodetypes="csscccccc" />
        </g>
      </g>
    </g>
    <ellipse
       style="fill:#2463ab;fill-opacity:1;stroke:none;stroke-width:0.59632;stroke-linecap:square;stroke-miterlimit:4;stroke-dasharray:none"
       id="path144151"
       cx="228.07613"
       cy="144.53378"
       rx="4.3289237"
       ry="7.9383926"
       transform="matrix(0.88070267,0.47366951,-0.52798623,0.84925293,0,0)" />
    <ellipse
       style="fill:#2463ab;fill-opacity:1;stroke:none;stroke-width:0.648771;stroke-linecap:square;stroke-miterlimit:4;stroke-dasharray:none"
       id="ellipse146010"
       cx="193.13173"
       cy="181.12166"
       rx="4.9676242"
       ry="8.1881924"
       transform="matrix(0.98597907,0.16686904,-0.29979669,0.95400312,0,0)" />
  </g>
</svg>
